<svg width="113" height="33" viewBox="0 0 113 33" fill="none" xmlns="http://www.w3.org/2000/svg">
<g clip-path="url(#clip0_15024_109248)">
<path d="M13.3657 12.8877C13.3657 13.4762 13.4275 13.9535 13.5356 14.3034C13.6592 14.6534 13.8137 15.0352 14.03 15.4488C14.1072 15.576 14.1381 15.7033 14.1381 15.8146C14.1381 15.9737 14.0454 16.1328 13.8446 16.2919L12.8713 16.96C12.7323 17.0554 12.5933 17.1032 12.4697 17.1032C12.3152 17.1032 12.1607 17.0236 12.0062 16.8805C11.7899 16.6418 11.6045 16.3873 11.4501 16.1328C11.2956 15.8624 11.1411 15.5601 10.9711 15.1942C9.76615 16.6577 8.25217 17.3895 6.42923 17.3895C5.13154 17.3895 4.09648 17.0077 3.33949 16.2441C2.58251 15.4806 2.19629 14.4625 2.19629 13.1899C2.19629 11.8377 2.65975 10.7401 3.60212 9.91293C4.54449 9.08574 5.79583 8.67214 7.38705 8.67214C7.9123 8.67214 8.45301 8.71986 9.02461 8.7994C9.59621 8.87894 10.1833 9.0062 10.8012 9.14937V7.98811C10.8012 6.77914 10.554 5.93604 10.0751 5.4429C9.58076 4.94977 8.74653 4.71115 7.55698 4.71115C7.01628 4.71115 6.46013 4.77478 5.88853 4.91795C5.31692 5.06112 4.76077 5.2361 4.22007 5.45881C3.97289 5.57016 3.7875 5.63379 3.67936 5.66561C3.57122 5.69742 3.49398 5.71333 3.43218 5.71333C3.2159 5.71333 3.10776 5.55426 3.10776 5.2202V4.44072C3.10776 4.1862 3.13866 3.99531 3.2159 3.88396C3.29315 3.77261 3.43218 3.66125 3.64847 3.5499C4.18917 3.26356 4.83801 3.02495 5.595 2.83406C6.35199 2.62726 7.15532 2.53182 8.00499 2.53182C9.84339 2.53182 11.1874 2.96132 12.0526 3.82033C12.9022 4.67934 13.3348 5.98376 13.3348 7.73359V12.8877H13.3657ZM7.09352 15.3056C7.60333 15.3056 8.12858 15.2102 8.68474 15.0193C9.24089 14.8284 9.73525 14.4784 10.1524 14.0012C10.3995 13.6989 10.5849 13.3649 10.6776 12.9831C10.7703 12.6013 10.8321 12.14 10.8321 11.5991V10.931C10.3841 10.8197 9.90518 10.7242 9.41083 10.6606C8.91647 10.597 8.43756 10.5651 7.95865 10.5651C6.92359 10.5651 6.1666 10.7719 5.65679 11.2014C5.14699 11.631 4.89981 12.2354 4.89981 13.0308C4.89981 13.7785 5.08519 14.3352 5.47141 14.717C5.84218 15.1147 6.38288 15.3056 7.09352 15.3056ZM19.4988 17.0236C19.2207 17.0236 19.0354 16.9759 18.9118 16.8645C18.7882 16.7691 18.68 16.5464 18.5873 16.2441L14.9569 3.94759C14.8642 3.62944 14.8179 3.42264 14.8179 3.31129C14.8179 3.05677 14.9415 2.9136 15.1886 2.9136H16.7026C16.9961 2.9136 17.197 2.96132 17.3051 3.07267C17.4287 3.16812 17.5214 3.39082 17.6141 3.69307L20.2095 14.2239L22.6195 3.69307C22.6967 3.37492 22.7894 3.16812 22.913 3.07267C23.0366 2.97723 23.2528 2.9136 23.5309 2.9136H24.7668C25.0603 2.9136 25.2612 2.96132 25.3848 3.07267C25.5084 3.16812 25.6165 3.39082 25.6783 3.69307L28.1192 14.3511L30.7918 3.69307C30.8845 3.37492 30.9926 3.16812 31.1008 3.07267C31.2244 2.97723 31.4252 2.9136 31.7033 2.9136H33.14C33.3872 2.9136 33.5262 3.04086 33.5262 3.31129C33.5262 3.39082 33.5108 3.47036 33.4953 3.56581C33.4799 3.66125 33.449 3.78851 33.3872 3.9635L29.6641 16.2601C29.5714 16.5782 29.4632 16.785 29.3396 16.8805C29.216 16.9759 29.0152 17.0395 28.7526 17.0395H27.424C27.1305 17.0395 26.9296 16.9918 26.806 16.8805C26.6825 16.7691 26.5743 16.5623 26.5125 16.2441L24.118 5.98376L21.7389 16.2282C21.6616 16.5464 21.5689 16.7532 21.4454 16.8645C21.3218 16.9759 21.1055 17.0236 20.8274 17.0236H19.4988ZM39.3504 17.4531C38.547 17.4531 37.7437 17.3577 36.9713 17.1668C36.1988 16.9759 35.5963 16.7691 35.1947 16.5305C34.9475 16.3873 34.7776 16.2282 34.7158 16.0851C34.654 15.9419 34.6231 15.7828 34.6231 15.6397V14.8284C34.6231 14.4943 34.7467 14.3352 34.9784 14.3352C35.0711 14.3352 35.1638 14.3511 35.2565 14.383C35.3492 14.4148 35.4882 14.4784 35.6427 14.542C36.168 14.7807 36.7396 14.9715 37.3421 15.0988C37.96 15.2261 38.5625 15.2897 39.1804 15.2897C40.1537 15.2897 40.9107 15.1147 41.436 14.7647C41.9612 14.4148 42.2393 13.9057 42.2393 13.2535C42.2393 12.8081 42.1002 12.4422 41.8222 12.14C41.5441 11.8377 41.0188 11.5673 40.2619 11.3128L38.0218 10.597C36.894 10.2311 36.0598 9.69023 35.55 8.97439C35.0402 8.27445 34.7776 7.49498 34.7776 6.66779C34.7776 5.99967 34.9166 5.41109 35.1947 4.90204C35.4728 4.393 35.8435 3.94759 36.307 3.59762C36.7704 3.23175 37.2957 2.96132 37.9137 2.77043C38.5316 2.57954 39.1804 2.5 39.8602 2.5C40.2001 2.5 40.5554 2.51591 40.8952 2.56363C41.2506 2.61135 41.575 2.67498 41.8994 2.73861C42.2084 2.81815 42.5019 2.89769 42.78 2.99313C43.0581 3.08858 43.2743 3.18403 43.4288 3.27947C43.6451 3.40673 43.7996 3.53399 43.8923 3.67716C43.985 3.80442 44.0313 3.9794 44.0313 4.20211V4.94977C44.0313 5.28383 43.9077 5.45881 43.676 5.45881C43.5524 5.45881 43.3516 5.39518 43.089 5.26792C42.2084 4.85432 41.2197 4.64752 40.1228 4.64752C39.2422 4.64752 38.547 4.79069 38.0681 5.09294C37.5892 5.39518 37.3421 5.8565 37.3421 6.50871C37.3421 6.95412 37.4965 7.3359 37.8055 7.63815C38.1145 7.94039 38.6861 8.24264 39.5049 8.51307L41.6986 9.22891C42.8109 9.59478 43.6142 10.1038 44.0931 10.756C44.572 11.4082 44.8038 12.1559 44.8038 12.9831C44.8038 13.6671 44.6647 14.2875 44.4021 14.8284C44.124 15.3692 43.7533 15.8465 43.2743 16.2282C42.7954 16.6259 42.2238 16.9123 41.5595 17.1191C40.8643 17.3418 40.1383 17.4531 39.3504 17.4531Z" fill="white"/>
<path fill-rule="evenodd" clip-rule="evenodd" d="M38.1987 22.3935C39.8668 22.1812 43.5459 21.7241 44.2007 22.6057C44.8554 23.471 43.468 27.1116 42.8444 28.7279C42.6573 29.2176 43.0626 29.4135 43.4835 29.0381C46.2273 26.6218 46.9444 21.5772 46.3832 20.8425C45.822 20.1242 41.0048 19.5038 38.074 21.6588C37.6219 22.0016 37.6998 22.4588 38.1987 22.3935ZM23.3116 31.0469C29.6976 31.0469 37.1246 28.9646 42.2365 25.0421C43.0756 24.3964 42.3453 23.4118 41.4907 23.8153C35.7573 26.3334 29.5267 27.5602 23.8554 27.5602C15.4495 27.5602 7.32325 25.1551 0.735248 21.1842C0.160352 20.8291 -0.274704 21.4425 0.206965 21.8944C6.29776 27.6087 14.3618 31.0469 23.3116 31.0469Z" fill="white"/>
</g>
<path fill-rule="evenodd" clip-rule="evenodd" d="M70.8254 10.0599C70.4521 10.0599 70.1521 9.95325 69.9254 9.73991C69.6988 9.52658 69.5854 9.23325 69.5854 8.85991C69.5854 8.48658 69.6988 8.19324 69.9254 7.97991C70.1521 7.76658 70.4521 7.65991 70.8254 7.65991C71.2121 7.65991 71.5121 7.76658 71.7254 7.97991C71.9521 8.19324 72.0655 8.48658 72.0655 8.85991C72.0655 9.23325 71.9521 9.52658 71.7254 9.73991C71.5121 9.95325 71.2121 10.0599 70.8254 10.0599ZM69.8254 21.5999V12.2599C69.8254 11.9932 69.9588 11.8599 70.2254 11.8599H71.4054C71.6721 11.8599 71.8054 11.9932 71.8054 12.2599V21.5999C71.8054 21.8666 71.6721 21.9999 71.4054 21.9999H70.2254C69.9588 21.9999 69.8254 21.8666 69.8254 21.5999ZM75.2433 22.0001H76.4233C76.6899 22.0001 76.8233 21.8667 76.8233 21.6001V14.1801C77.3166 13.8467 77.8233 13.5934 78.3433 13.4201C78.8633 13.2467 79.3899 13.1601 79.9233 13.1601C80.5366 13.1601 80.9833 13.3267 81.2633 13.6601C81.5566 13.9934 81.7033 14.5134 81.7033 15.2201V21.6001C81.7033 21.8667 81.8366 22.0001 82.1033 22.0001H83.2833C83.5499 22.0001 83.6833 21.8667 83.6833 21.6001V14.5601C83.6833 13.5867 83.4299 12.8467 82.9233 12.3401C82.4166 11.8201 81.6766 11.5601 80.7033 11.5601C79.3033 11.5601 77.9699 12.0334 76.7033 12.9801L76.5833 12.2401C76.5433 11.9867 76.3899 11.8601 76.1233 11.8601H75.2433C74.9766 11.8601 74.8433 11.9934 74.8433 12.2601V21.6001C74.8433 21.8667 74.9766 22.0001 75.2433 22.0001ZM90.3611 26.3601C89.2677 26.3601 88.2477 26.1601 87.3011 25.7601C87.1411 25.6934 87.0344 25.6201 86.9811 25.5401C86.9277 25.4601 86.9011 25.3334 86.9011 25.1601V24.5801C86.9011 24.3401 86.9811 24.2201 87.1411 24.2201C87.2211 24.2201 87.3144 24.2401 87.4211 24.2801C87.5411 24.3201 87.7011 24.3667 87.9011 24.4201C88.7277 24.6467 89.4944 24.7601 90.2011 24.7601C91.2677 24.7601 92.0477 24.5001 92.5411 23.9801C93.0344 23.4734 93.2811 22.6534 93.2811 21.5201V20.6201C92.3611 21.4201 91.3477 21.8201 90.2411 21.8201C89.4011 21.8201 88.6677 21.6134 88.0411 21.2001C87.4277 20.7867 86.9477 20.2001 86.6011 19.4401C86.2544 18.6801 86.0811 17.7934 86.0811 16.7801C86.0811 15.7134 86.2544 14.7934 86.6011 14.0201C86.9477 13.2334 87.4344 12.6267 88.0611 12.2001C88.6877 11.7734 89.4277 11.5601 90.2811 11.5601C91.4811 11.5601 92.5277 11.9734 93.4211 12.8001L93.5211 12.2401C93.5611 11.9867 93.7144 11.8601 93.9811 11.8601H94.8411C95.1077 11.8601 95.2411 11.9934 95.2411 12.2601V21.3801C95.2411 22.9667 94.8144 24.1934 93.9611 25.0601C93.1211 25.9267 91.9211 26.3601 90.3611 26.3601ZM90.8211 20.2201C91.6477 20.2201 92.4677 19.9134 93.2811 19.3001V14.0401C92.4944 13.4534 91.6344 13.1601 90.7011 13.1601C88.9677 13.1601 88.1011 14.3401 88.1011 16.7001C88.1011 19.0467 89.0077 20.2201 90.8211 20.2201ZM102.523 22.3001C101.029 22.3001 99.8493 21.8334 98.9826 20.9001C98.116 19.9534 97.6826 18.6267 97.6826 16.9201C97.6826 15.2134 98.116 13.8934 98.9826 12.9601C99.8493 12.0267 101.029 11.5601 102.523 11.5601C104.029 11.5601 105.209 12.0267 106.063 12.9601C106.929 13.8934 107.363 15.2134 107.363 16.9201C107.363 18.6267 106.929 19.9534 106.063 20.9001C105.209 21.8334 104.029 22.3001 102.523 22.3001ZM102.523 20.7001C103.443 20.7001 104.143 20.3934 104.623 19.7801C105.103 19.1667 105.343 18.2134 105.343 16.9201C105.343 15.6401 105.103 14.6934 104.623 14.0801C104.143 13.4667 103.443 13.1601 102.523 13.1601C101.603 13.1601 100.903 13.4667 100.423 14.0801C99.9426 14.6934 99.7026 15.6401 99.7026 16.9201C99.7026 18.2134 99.9426 19.1667 100.423 19.7801C100.903 20.3934 101.603 20.7001 102.523 20.7001ZM57.6802 21.5999C57.6802 21.8666 57.8135 21.9999 58.0802 21.9999H62.7802C63.6868 21.9999 64.4802 21.8466 65.1602 21.5399C65.8535 21.2332 66.3868 20.7932 66.7602 20.2199C67.1468 19.6332 67.3402 18.9399 67.3402 18.1399C67.3402 17.2599 67.1068 16.5332 66.6402 15.9599C66.1735 15.3866 65.5268 14.9799 64.7002 14.7399C65.2868 14.4732 65.7402 14.0932 66.0602 13.5999C66.3935 13.1066 66.5602 12.5066 66.5602 11.7999C66.5602 11.0399 66.3735 10.3866 66.0002 9.83989C65.6402 9.29323 65.1402 8.87323 64.5002 8.57989C63.8602 8.28656 63.1135 8.13989 62.2602 8.13989H58.0802C57.8135 8.13989 57.6802 8.27323 57.6802 8.53989V21.5999ZM62.0602 14.1599H59.6202V9.69989H62.1202C63.7335 9.69989 64.5402 10.4466 64.5402 11.9399C64.5402 13.4199 63.7135 14.1599 62.0602 14.1599ZM62.7402 20.4399H59.6202V15.6799H62.7002C64.4202 15.6799 65.2802 16.4732 65.2802 18.0599C65.2802 19.6466 64.4335 20.4399 62.7402 20.4399Z" fill="white"/>
<defs>
<clipPath id="clip0_15024_109248">
<rect width="47" height="29" fill="white" transform="translate(0 2.5)"/>
</clipPath>
</defs>
</svg>
